<svg width="14" height="14" viewBox="0 0 14 14" fill="none" xmlns="http://www.w3.org/2000/svg">
<path d="M7.00303 3.41172C5.01553 3.41172 3.4124 5.01484 3.4124 7.00234C3.4124 8.98984 5.01553 10.593 7.00303 10.593C8.99053 10.593 10.5937 8.98984 10.5937 7.00234C10.5937 5.01484 8.99053 3.41172 7.00303 3.41172ZM7.00303 9.33672C5.71865 9.33672 4.66865 8.28984 4.66865 7.00234C4.66865 5.71484 5.71553 4.66797 7.00303 4.66797C8.29053 4.66797 9.3374 5.71484 9.3374 7.00234C9.3374 8.28984 8.2874 9.33672 7.00303 9.33672ZM11.578 3.26484C11.578 3.73047 11.203 4.10234 10.7405 4.10234C10.2749 4.10234 9.90303 3.72734 9.90303 3.26484C9.90303 2.80234 10.278 2.42734 10.7405 2.42734C11.203 2.42734 11.578 2.80234 11.578 3.26484ZM13.9562 4.11484C13.903 2.99297 13.6468 1.99922 12.8249 1.18047C12.0062 0.361719 11.0124 0.105469 9.89053 0.0492187C8.73428 -0.0164062 5.26865 -0.0164062 4.1124 0.0492187C2.99365 0.102344 1.9999 0.358594 1.17803 1.17734C0.356152 1.99609 0.103027 2.98984 0.0467773 4.11172C-0.0188477 5.26797 -0.0188477 8.73359 0.0467773 9.88984C0.0999023 11.0117 0.356152 12.0055 1.17803 12.8242C1.9999 13.643 2.99053 13.8992 4.1124 13.9555C5.26865 14.0211 8.73428 14.0211 9.89053 13.9555C11.0124 13.9023 12.0062 13.6461 12.8249 12.8242C13.6437 12.0055 13.8999 11.0117 13.9562 9.88984C14.0218 8.73359 14.0218 5.27109 13.9562 4.11484ZM12.4624 11.1305C12.2187 11.743 11.7468 12.2148 11.1312 12.4617C10.2093 12.8273 8.02178 12.743 7.00303 12.743C5.98428 12.743 3.79365 12.8242 2.8749 12.4617C2.2624 12.218 1.79053 11.7461 1.54365 11.1305C1.17803 10.2086 1.2624 8.02109 1.2624 7.00234C1.2624 5.98359 1.18115 3.79297 1.54365 2.87422C1.7874 2.26172 2.25928 1.78984 2.8749 1.54297C3.79678 1.17734 5.98428 1.26172 7.00303 1.26172C8.02178 1.26172 10.2124 1.18047 11.1312 1.54297C11.7437 1.78672 12.2155 2.25859 12.4624 2.87422C12.828 3.79609 12.7437 5.98359 12.7437 7.00234C12.7437 8.02109 12.828 10.2117 12.4624 11.1305Z" fill="#0EA5E9"/>
</svg>
