<svg width="23" height="30" viewBox="0 0 23 30" fill="none" xmlns="http://www.w3.org/2000/svg">
<g clip-path="url(#clip0_1_331)">
<g clip-path="url(#clip1_1_331)">
<path d="M12.6387 29.25C15.6445 25.4883 22.5 16.3711 22.5 11.25C22.5 5.03906 17.4609 0 11.25 0C5.03906 0 0 5.03906 0 11.25C0 16.3711 6.85547 25.4883 9.86133 29.25C10.582 30.1465 11.918 30.1465 12.6387 29.25ZM11.25 7.5C12.2446 7.5 13.1984 7.89509 13.9017 8.59835C14.6049 9.30161 15 10.2554 15 11.25C15 12.2446 14.6049 13.1984 13.9017 13.9017C13.1984 14.6049 12.2446 15 11.25 15C10.2554 15 9.30161 14.6049 8.59835 13.9017C7.89509 13.1984 7.5 12.2446 7.5 11.25C7.5 10.2554 7.89509 9.30161 8.59835 8.59835C9.30161 7.89509 10.2554 7.5 11.25 7.5Z" fill="white"/>
</g>
</g>
<defs>
<clipPath id="clip0_1_331">
<rect width="22.5" height="30" fill="white"/>
</clipPath>
<clipPath id="clip1_1_331">
<path d="M0 0H22.5V30H0V0Z" fill="white"/>
</clipPath>
</defs>
</svg>
