<svg width="30" height="30" viewBox="0 0 30 30" fill="none" xmlns="http://www.w3.org/2000/svg">
<g clip-path="url(#clip0_1_238)">
<path d="M20.0742 0.550781C19.3418 -0.181641 18.1523 -0.181641 17.4199 0.550781C16.6875 1.2832 16.6875 2.47266 17.4199 3.20508L17.9707 3.75586L1.64648 20.0742C0.591797 21.1289 0 22.5586 0 24.0527V24.375C0 27.4805 2.51953 30 5.625 30H5.94727C7.44141 30 8.87109 29.4082 9.92578 28.3535L26.25 12.0293L26.8008 12.5801C27.5332 13.3125 28.7227 13.3125 29.4551 12.5801C30.1875 11.8477 30.1875 10.6582 29.4551 9.92578L27.5801 8.05078L21.9551 2.42578L20.0801 0.550781H20.0742ZM12.0293 15L20.625 6.4043L23.5957 9.375L17.9707 15H12.0293Z" fill="#0EA5E9"/>
</g>
<defs>
<clipPath id="clip0_1_238">
<path d="M0 0H30V30H0V0Z" fill="white"/>
</clipPath>
</defs>
</svg>
