<svg width="31" height="30" viewBox="0 0 31 30" fill="none" xmlns="http://www.w3.org/2000/svg">
<path d="M6.46875 1.281C6.79687 2.26538 6.26367 3.32593 5.28516 3.65405L3.75 4.16382V11.2478C3.75 14.3533 6.26953 16.8728 9.375 16.8728C12.4805 16.8728 15 14.3533 15 11.2478V4.16382L13.4707 3.65405C12.4863 3.32593 11.959 2.26538 12.2871 1.281C12.6152 0.296628 13.6758 -0.230715 14.6602 0.0974096L16.1895 0.607175C17.7188 1.11694 18.75 2.54663 18.75 4.16382V11.2478C18.75 15.7712 15.5508 19.5447 11.291 20.4294C11.6602 23.7048 14.4375 26.2478 17.8125 26.2478C21.4395 26.2478 24.375 23.3123 24.375 19.6853V15.5427C22.7168 14.822 21.5625 13.1697 21.5625 11.2478C21.5625 8.65796 23.6602 6.5603 26.25 6.5603C28.8398 6.5603 30.9375 8.65796 30.9375 11.2478C30.9375 13.1697 29.7832 14.822 28.125 15.5427V19.6853C28.125 25.3806 23.5078 29.9978 17.8125 29.9978C12.3691 29.9978 7.91602 25.7849 7.5293 20.4412C3.23437 19.5798 0 15.7947 0 11.2478V4.16382C0 2.55249 1.03125 1.11694 2.56641 0.607175L4.0957 0.0974096C5.08008 -0.230715 6.14062 0.302488 6.46875 1.281ZM26.25 13.1228C26.7473 13.1228 27.2242 12.9253 27.5758 12.5736C27.9275 12.222 28.125 11.7451 28.125 11.2478C28.125 10.7505 27.9275 10.2736 27.5758 9.92198C27.2242 9.57034 26.7473 9.3728 26.25 9.3728C25.7527 9.3728 25.2758 9.57034 24.9242 9.92198C24.5725 10.2736 24.375 10.7505 24.375 11.2478C24.375 11.7451 24.5725 12.222 24.9242 12.5736C25.2758 12.9253 25.7527 13.1228 26.25 13.1228Z" fill="#0EA5E9"/>
</svg>
