<svg width="16" height="13" viewBox="0 0 16 13" fill="none" xmlns="http://www.w3.org/2000/svg">
<path d="M14.3553 3.23856C14.3655 3.38069 14.3655 3.52284 14.3655 3.66497C14.3655 7.99997 11.066 12.9949 5.03553 12.9949C3.17766 12.9949 1.45178 12.4568 0 11.5228C0.263969 11.5533 0.51775 11.5634 0.791875 11.5634C2.32484 11.5634 3.73603 11.0457 4.86294 10.1624C3.42131 10.132 2.21319 9.18781 1.79694 7.88831C2 7.91875 2.20303 7.93906 2.41625 7.93906C2.71066 7.93906 3.00509 7.89844 3.27919 7.82741C1.77666 7.52281 0.649719 6.20303 0.649719 4.60913V4.56853C1.08625 4.81219 1.59391 4.96447 2.13194 4.98475C1.24869 4.39591 0.670031 3.39084 0.670031 2.25378C0.670031 1.64466 0.832438 1.08628 1.11672 0.598969C2.73094 2.58881 5.15734 3.88828 7.87813 4.03044C7.82738 3.78678 7.79691 3.533 7.79691 3.27919C7.79691 1.47206 9.25884 0 11.0761 0C12.0203 0 12.873 0.395938 13.472 1.03553C14.2131 0.893406 14.9238 0.619281 15.5533 0.243656C15.3096 1.00509 14.7918 1.64469 14.1116 2.05075C14.7715 1.97972 15.4111 1.79694 15.9999 1.54316C15.5533 2.19287 14.9949 2.77153 14.3553 3.23856Z" fill="#0EA5E9"/>
</svg>
