<svg width="19" height="43" viewBox="0 0 19 43" fill="none" xmlns="http://www.w3.org/2000/svg">
<path d="M18.75 43H0V0H18.75V43Z" stroke="#E5E7EB"/>
<g clip-path="url(#clip0_1_224)">
<path d="M5.62503 9.5C5.62503 8.50544 6.02012 7.55161 6.72338 6.84835C7.42664 6.14509 8.38047 5.75 9.37503 5.75C10.3696 5.75 11.3234 6.14509 12.0267 6.84835C12.7299 7.55161 13.125 8.50544 13.125 9.5C13.125 10.4946 12.7299 11.4484 12.0267 12.1517C11.3234 12.8549 10.3696 13.25 9.37503 13.25C8.38047 13.25 7.42664 12.8549 6.72338 12.1517C6.02012 11.4484 5.62503 10.4946 5.62503 9.5ZM8.43753 28.25V33.875C8.43753 34.9121 7.59964 35.75 6.56253 35.75C5.52542 35.75 4.68753 34.9121 4.68753 33.875V22.6133L3.46292 24.5586C2.91214 25.4375 1.75198 25.6953 0.878934 25.1445C0.00588702 24.5938 -0.263644 23.4395 0.287137 22.5664L2.62503 18.8574C4.08401 16.5312 6.63284 15.125 9.37503 15.125C12.1172 15.125 14.666 16.5312 16.125 18.8516L18.4629 22.5664C19.0137 23.4453 18.75 24.5996 17.877 25.1504C17.0039 25.7012 15.8438 25.4375 15.293 24.5645L14.0625 22.6133V33.875C14.0625 34.9121 13.2246 35.75 12.1875 35.75C11.1504 35.75 10.3125 34.9121 10.3125 33.875V28.25H8.43753Z" fill="#0EA5E9"/>
</g>
<defs>
<clipPath id="clip0_1_224">
<path d="M0 5.75H18.75V35.75H0V5.75Z" fill="white"/>
</clipPath>
</defs>
</svg>
