<svg width="25" height="25" viewBox="0 0 25 25" fill="none" xmlns="http://www.w3.org/2000/svg">
<path d="M20.073 5.55197C18.6875 4.90614 17.1875 4.43739 15.625 4.16655C15.6113 4.16611 15.5977 4.16868 15.5851 4.17408C15.5725 4.17948 15.5613 4.18758 15.5521 4.1978C15.3646 4.54155 15.1459 4.98947 15 5.33322C13.3427 5.08322 11.6573 5.08322 10 5.33322C9.85421 4.97905 9.63546 4.54155 9.43754 4.1978C9.42712 4.17697 9.39587 4.16655 9.36462 4.16655C7.80212 4.43739 6.31254 4.90614 4.91671 5.55197C4.90629 5.55197 4.89587 5.56238 4.88546 5.5728C2.05212 9.81239 1.27087 13.9374 1.65629 18.0207C1.65629 18.0416 1.66671 18.0624 1.68754 18.0728C3.56254 19.4478 5.36462 20.2811 7.14587 20.8332C7.17712 20.8436 7.20837 20.8332 7.21879 20.8124C7.63546 20.2395 8.01046 19.6353 8.33337 18.9999C8.35421 18.9582 8.33337 18.9166 8.29171 18.9061C7.69796 18.677 7.13546 18.4061 6.58337 18.0936C6.54171 18.0728 6.54171 18.0103 6.57296 17.9791C6.68754 17.8957 6.80212 17.802 6.91671 17.7186C6.93754 17.6978 6.96879 17.6978 6.98962 17.7082C10.573 19.3436 14.4375 19.3436 17.9792 17.7082C18 17.6978 18.0313 17.6978 18.0521 17.7186C18.1667 17.8124 18.2813 17.8957 18.3959 17.9895C18.4375 18.0207 18.4375 18.0832 18.3855 18.1041C17.8438 18.427 17.2709 18.6874 16.6771 18.9166C16.6355 18.927 16.625 18.9791 16.6355 19.0103C16.9688 19.6457 17.3438 20.2499 17.75 20.8228C17.7813 20.8332 17.8125 20.8436 17.8438 20.8332C19.6355 20.2811 21.4375 19.4478 23.3125 18.0728C23.3334 18.0624 23.3438 18.0416 23.3438 18.0207C23.8021 13.302 22.5834 9.20822 20.1146 5.5728C20.1042 5.56238 20.0938 5.55197 20.073 5.55197ZM8.87504 15.5311C7.80212 15.5311 6.90629 14.5416 6.90629 13.3228C6.90629 12.1041 7.78129 11.1145 8.87504 11.1145C9.97921 11.1145 10.8542 12.1145 10.8438 13.3228C10.8438 14.5416 9.96879 15.5311 8.87504 15.5311ZM16.1355 15.5311C15.0625 15.5311 14.1667 14.5416 14.1667 13.3228C14.1667 12.1041 15.0417 11.1145 16.1355 11.1145C17.2396 11.1145 18.1146 12.1145 18.1042 13.3228C18.1042 14.5416 17.2396 15.5311 16.1355 15.5311Z" fill="white"/>
</svg>
