<svg width="21" height="21" viewBox="0 0 21 21" fill="none" xmlns="http://www.w3.org/2000/svg">
<path d="M11.4881 0C12.66 0.003125 13.2548 0.009375 13.7683 0.0239583L13.9704 0.03125C14.2037 0.0395833 14.4339 0.0499999 14.7121 0.0624999C15.8204 0.114583 16.5766 0.289583 17.2402 0.546875C17.9277 0.811458 18.5069 1.16979 19.086 1.74792C19.6157 2.26864 20.0256 2.89853 20.2871 3.59375C20.5444 4.25729 20.7194 5.01354 20.7714 6.12292C20.7839 6.4 20.7944 6.63021 20.8027 6.86458L20.8089 7.06667C20.8246 7.57917 20.8308 8.17396 20.8329 9.34583L20.8339 10.1229V11.4875C20.8365 12.2473 20.8285 13.0071 20.81 13.7667L20.8037 13.9687C20.7954 14.2031 20.785 14.4333 20.7725 14.7104C20.7204 15.8198 20.5433 16.575 20.2871 17.2396C20.0263 17.9352 19.6164 18.5652 19.086 19.0854C18.5651 19.6149 17.9353 20.0247 17.2402 20.2865C16.5766 20.5437 15.8204 20.7188 14.7121 20.7708C14.4649 20.7825 14.2177 20.7929 13.9704 20.8021L13.7683 20.8083C13.2548 20.8229 12.66 20.8302 11.4881 20.8323L10.711 20.8333H9.34748C8.58733 20.836 7.82719 20.828 7.06727 20.8094L6.86519 20.8031C6.6179 20.7938 6.37068 20.783 6.12352 20.7708C5.01518 20.7188 4.25893 20.5437 3.59435 20.2865C2.89921 20.0254 2.26958 19.6155 1.74956 19.0854C1.2194 18.5649 0.809168 17.935 0.547476 17.2396C0.290184 16.576 0.115184 15.8198 0.063101 14.7104C0.0514956 14.4632 0.0410788 14.216 0.031851 13.9687L0.0266428 13.7667C0.00744702 13.0071 -0.00123446 12.2473 0.000601042 11.4875V9.34583C-0.00230621 8.58604 0.00533349 7.82625 0.0235178 7.06667L0.0308094 6.86458C0.0391428 6.63021 0.0495594 6.4 0.0620594 6.12292C0.114143 5.01354 0.289143 4.25833 0.546434 3.59375C0.808011 2.89782 1.21906 2.26773 1.7506 1.74792C2.27049 1.2182 2.89971 0.80832 3.59435 0.546875C4.25893 0.289583 5.01414 0.114583 6.12352 0.0624999C6.4006 0.0499999 6.63185 0.0395833 6.86519 0.03125L7.06727 0.0249999C7.82684 0.0064924 8.58664 -0.00149448 9.34644 0.00104159L11.4881 0ZM10.4173 5.20833C9.03593 5.20833 7.71117 5.75707 6.73442 6.73382C5.75767 7.71057 5.20893 9.03533 5.20893 10.4167C5.20893 11.798 5.75767 13.1228 6.73442 14.0995C7.71117 15.0763 9.03593 15.625 10.4173 15.625C11.7986 15.625 13.1234 15.0763 14.1001 14.0995C15.0769 13.1228 15.6256 11.798 15.6256 10.4167C15.6256 9.03533 15.0769 7.71057 14.1001 6.73382C13.1234 5.75707 11.7986 5.20833 10.4173 5.20833ZM10.4173 7.29167C10.8276 7.2916 11.234 7.37236 11.6132 7.52934C11.9924 7.68633 12.3369 7.91645 12.6271 8.20659C12.9174 8.49672 13.1476 8.84118 13.3047 9.2203C13.4618 9.59942 13.5427 10.0058 13.5428 10.4161C13.5429 10.8265 13.4621 11.2329 13.3051 11.6121C13.1481 11.9912 12.918 12.3358 12.6279 12.626C12.3377 12.9162 11.9933 13.1465 11.6142 13.3036C11.235 13.4607 10.8287 13.5416 10.4183 13.5417C9.58951 13.5417 8.79465 13.2124 8.2086 12.6264C7.62255 12.0403 7.29331 11.2455 7.29331 10.4167C7.29331 9.58786 7.62255 8.79301 8.2086 8.20696C8.79465 7.62091 9.58951 7.29167 10.4183 7.29167M15.8871 3.64583C15.5417 3.64583 15.2105 3.78302 14.9663 4.0272C14.7222 4.27139 14.585 4.60258 14.585 4.94792C14.585 5.29325 14.7222 5.62444 14.9663 5.86863C15.2105 6.11282 15.5417 6.25 15.8871 6.25C16.2324 6.25 16.5636 6.11282 16.8078 5.86863C17.052 5.62444 17.1891 5.29325 17.1891 4.94792C17.1891 4.60258 17.052 4.27139 16.8078 4.0272C16.5636 3.78302 16.2324 3.64583 15.8871 3.64583Z" fill="white"/>
</svg>
