<svg width="24" height="25" viewBox="0 0 24 25" fill="none" xmlns="http://www.w3.org/2000/svg">
<path d="M22.2129 5.89171C21.4494 6.24348 20.6398 6.4745 19.8109 6.57713C20.6839 6.03248 21.3372 5.17581 21.6489 4.16671C20.8289 4.67505 19.9299 5.0313 18.9939 5.224C18.3645 4.52252 17.5302 4.0573 16.6208 3.90065C15.7114 3.74401 14.7778 3.90472 13.9651 4.35781C13.1525 4.81089 12.5063 5.53097 12.127 6.40608C11.7477 7.28119 11.6566 8.26232 11.8679 9.19692C10.2048 9.11025 8.57785 8.66018 7.09262 7.87595C5.60739 7.09171 4.29712 5.99085 3.24688 4.64484C2.87517 5.30989 2.67984 6.06591 2.68088 6.83546C2.68088 8.34588 3.41988 9.68025 4.54088 10.4615C3.8769 10.4397 3.22753 10.2529 2.64688 9.91671V9.96984C2.64685 10.976 2.98091 11.9511 3.59241 12.7299C4.20391 13.5087 5.05519 14.0432 6.00188 14.2428C5.38552 14.4169 4.73917 14.4426 4.11188 14.3178C4.3788 15.1838 4.89909 15.9412 5.59988 16.4838C6.30066 17.0264 7.14684 17.3271 8.01988 17.3438C7.15224 18.0536 6.15877 18.5784 5.09629 18.8879C4.03381 19.1975 2.92317 19.2859 1.82788 19.148C3.7396 20.4286 5.96499 21.1084 8.23788 21.1063C15.9319 21.1063 20.1379 14.4678 20.1379 8.71046C20.1379 8.52296 20.1339 8.33338 20.1259 8.14692C20.9443 7.53063 21.6507 6.7673 22.2119 5.89275" fill="white"/>
</svg>
