<svg width="32" height="32" viewBox="0 0 32 32" fill="none" xmlns="http://www.w3.org/2000/svg">
<path d="M3.51076 27.9828C0.784229 25.294 -0.494893 21.2047 0.273868 17.4464C1.03435 13.2256 4.31262 9.54637 8.45253 8.38679C10.4793 10.4429 12.5317 12.4715 14.5677 14.5166C14.987 14.9213 15.3714 15.3617 15.8238 15.7305C14.381 15.7452 12.9354 15.6919 11.4945 15.7479C9.50359 15.8739 7.8171 17.7517 7.92837 19.7481C7.90998 21.7629 9.71693 23.5836 11.7326 23.5716C15.6978 23.5808 19.6621 23.5707 23.6254 23.5781C26.2306 26.186 28.8311 28.7994 31.4501 31.3944C31.0454 31.4717 30.6344 31.4505 30.2261 31.4468C24.1119 31.4478 17.9995 31.4468 11.8871 31.4478C8.78725 31.456 5.69014 30.1981 3.51076 27.9828Z" fill="#7C4EE4"/>
<path d="M7.72445 7.69208C5.14689 5.132 2.60888 2.52962 6.00269e-05 -0.00012207C6.10233 0.0237863 12.2037 0.00355476 18.3059 0.0109111C19.3303 0.024705 20.3649 -0.0470189 21.3773 0.145171C23.9723 0.502883 26.4303 1.77281 28.2263 3.67816C30.2227 5.74811 31.3905 8.57855 31.4815 11.4494C31.5496 13.8155 30.8801 16.1999 29.5992 18.1899C28.092 20.5045 25.7627 22.3344 23.0831 23.0664C21.0821 21.0332 19.0499 19.0285 17.036 17.0064C16.6305 16.6303 16.2902 16.1797 15.8249 15.8689C15.904 15.8036 15.9895 15.7484 16.0833 15.7043C17.3625 15.731 18.6443 15.7273 19.9244 15.7107C21.9107 15.6556 23.6542 13.8403 23.6146 11.8513C23.6726 10.2356 22.5792 8.68338 21.072 8.12888C20.4973 7.88059 19.8628 7.87692 19.2476 7.88243C15.5344 7.88611 11.8221 7.88151 8.10975 7.88519C7.95434 7.88611 7.8256 7.82174 7.72445 7.69208Z" fill="#7C4EE4"/>
</svg>
